<?xml version="1.0" encoding="utf-8"?>
<svg viewBox="157.924 157.924 184.152 184.152" xmlns="http://www.w3.org/2000/svg">
  <defs>
    <linearGradient gradientUnits="userSpaceOnUse" x1="144.532" y1="15.486" x2="144.532" y2="199.638" id="gradient-1" gradientTransform="matrix(0.001465, 0.999999, -1.034848, 0.001517, 362.075058, 95.957618)">
      <stop offset="0" style="stop-color: rgb(0, 209, 250);"/>
      <stop offset="0.528" style="stop-color: rgb(131, 58, 255);"/>
      <stop offset="1" style="stop-color: rgb(253, 0, 230);"/>
    </linearGradient>
  </defs>
  <g id="OBJECTS" style="" transform="matrix(0.9999999999999999, 0, 0, 0.9999999999999999, -1.7763568394002505e-15, 1.4210854715202004e-14)">
    <path style="paint-order: stroke; fill: url('#gradient-1');" d="M 186.924 157.924 H 312.076 A 30 30 0 0 1 342.076 187.924 V 312.076 A 30 30 0 0 1 312.076 342.076 H 187.924 A 30 30 0 0 1 157.924 312.076 V 186.924 A 29 29 0 0 1 186.924 157.924 Z"/>
    <g transform="matrix(1, 0, 0, 1, 105.468059, 149.134053)">
      <g>
        <g style="">
          <linearGradient id="SVGID_1_" gradientUnits="userSpaceOnUse" x1="196.6209" y1="134.1756" x2="159.455" y2="69.8025" gradientTransform="matrix(1, 0, 0, 1, -0.60611, 0.295728)">
            <stop offset="0.098" style="stop-color: rgb(218, 218, 218);"/>
            <stop offset="1" style="stop-color: rgb(255, 255, 255);"/>
          </linearGradient>
          <linearGradient id="SVGID_00000043457528917845131500000005041350668868183711_" gradientUnits="userSpaceOnUse" x1="190.9772" y1="114.2853" x2="157.2164" y2="168.3139">
            <stop offset="0" style="stop-color: rgb(190, 196, 201);"/>
            <stop offset="0.345" style="stop-color: rgb(255, 255, 255);"/>
            <stop offset="1" style="stop-color: rgb(255, 255, 255);"/>
          </linearGradient>
          <path style="fill:url(#SVGID_00000043457528917845131500000005041350668868183711_);" d="M210.122,126.248l-64.261,33.588 c-1.31,0.684-2.831,0.106-3.162-1.333c-0.236-0.979,0.236-1.947,1.085-2.383l30.803-16.068c0.519-0.271,0.708-0.908,0.448-1.404 c-0.271-0.507-0.908-0.708-1.404-0.448l-24.834,12.989c-1.416,0.743-3.115-0.295-3.115-1.888v-0.378 c0-0.79,0.436-1.522,1.144-1.888l23.17-12.116c0.496-0.26,0.696-0.897,0.425-1.392c-0.26-0.519-0.885-0.708-1.404-0.448 l-16.694,8.86c-1.439,0.755-3.15-0.307-3.115-1.923l0.012-0.944c0.024-0.802,0.472-1.522,1.192-1.864 c7.114-3.492,39.223-19.099,40.851-19.5L210.122,126.248z"/>
          <path style="fill:url(#SVGID_1_);" d="M 215.946 118.51 C 215.946 121.377 214.353 124.008 211.817 125.341 L 209.516 126.544 L 146.046 97.806 C 144.618 97.051 143.592 96.166 142.978 95.14 C 142.353 94.114 142.034 92.981 142.034 91.742 L 141.932 79.866 L 211.805 111.692 C 213.079 112.353 214.117 113.344 214.825 114.523 C 215.545 115.703 215.946 117.071 215.946 118.51 Z"/>
          <path style="fill: rgb(255, 255, 255);" d="M137.18,159.47l-10.029,5.297 c-0.692,0.366-1.125,1.084-1.125,1.867v0.026c0,1.592,1.695,2.611,3.101,1.865l10.03-5.323c0.682-0.362,1.112-1.067,1.121-1.839 l0,0C140.297,159.762,138.596,158.722,137.18,159.47z"/>
          <path style="fill: rgb(255, 255, 255);" d="M140.2,150.218l-5.959,3.158 c-0.692,0.366-1.125,1.084-1.125,1.867v0.026c0,1.592,1.695,2.611,3.101,1.865l5.958-3.183c0.682-0.362,1.112-1.067,1.121-1.839 l0,0C143.316,150.509,141.616,149.47,140.2,150.218z"/>
          <path style="fill: rgb(255, 255, 255);" d="M143.235,141.248l-3.709,1.975 c-0.692,0.366-1.125,1.084-1.125,1.867v0.026c0,1.592,1.695,2.611,3.101,1.865l3.709-2.001c0.682-0.362,1.112-1.067,1.121-1.839 l0,0C146.352,141.539,144.651,140.5,143.235,141.248z"/>
        </g>
        <g style="">
          <linearGradient id="SVGID_00000050635909641659843750000013082246659145285786_" gradientUnits="userSpaceOnUse" x1="252.5055" y1="111.6756" x2="215.3396" y2="47.3025" gradientTransform="matrix(-1, 0, 0, -1, 345.469128, 182.114563)">
            <stop offset="0.098" style="stop-color: rgb(218, 218, 218);"/>
            <stop offset="1" style="stop-color: rgb(255, 255, 255);"/>
          </linearGradient>
          <linearGradient id="SVGID_00000103980596192044025800000015661739370562205321_" gradientUnits="userSpaceOnUse" x1="250.5784" y1="91.2546" x2="207.812" y2="144.0668" gradientTransform="matrix(-1 0 0 -1 344.9622 182.3427)">
            <stop offset="0" style="stop-color: rgb(190, 196, 201);"/>
            <stop offset="0.345" style="stop-color: rgb(255, 255, 255);"/>
            <stop offset="1" style="stop-color: rgb(255, 255, 255);"/>
          </linearGradient>
          <path style="fill:url(#SVGID_00000103980596192044025800000015661739370562205321_);" d="M78.955,78.594l64.261-33.588 c1.31-0.684,2.831-0.106,3.162,1.333c0.236,0.979-0.236,1.947-1.085,2.383l-30.803,16.068c-0.519,0.271-0.708,0.909-0.448,1.404 c0.271,0.507,0.909,0.708,1.404,0.448l24.834-12.989c1.416-0.743,3.115,0.295,3.115,1.888v0.378 c0,0.791-0.436,1.522-1.144,1.888l-23.17,12.116c-0.496,0.26-0.696,0.897-0.425,1.392c0.259,0.519,0.885,0.708,1.404,0.448 l16.694-8.86c1.439-0.755,3.15,0.307,3.115,1.923l-0.012,0.944c-0.024,0.802-0.472,1.522-1.191,1.864 c-7.114,3.492-39.223,19.099-40.851,19.5L78.955,78.594z"/>
          <path style="fill:url(#SVGID_00000050635909641659843750000013082246659145285786_);" d="M 73.032 86.4 C 73.032 83.533 74.625 80.902 77.161 79.569 L 79.461 78.366 L 142.932 107.105 C 144.36 107.86 145.386 108.745 145.999 109.771 C 146.624 110.797 146.943 111.93 146.943 113.169 L 147.045 125.045 L 77.173 93.219 C 75.899 92.558 74.861 91.567 74.153 90.388 C 73.434 89.208 73.032 87.84 73.032 86.4 Z"/>
          <path style="fill: rgb(255, 255, 255);" d="M151.897,45.373l10.029-5.297 c0.692-0.366,1.125-1.084,1.125-1.867v-0.026c0-1.592-1.695-2.611-3.101-1.865l-10.029,5.323 c-0.682,0.362-1.112,1.067-1.121,1.839l0,0C148.781,45.081,150.481,46.121,151.897,45.373z"/>
          <path style="fill: rgb(255, 255, 255);" d="M148.878,54.625l5.958-3.158 c0.692-0.365,1.125-1.084,1.125-1.867v-0.026c0-1.592-1.695-2.611-3.101-1.865l-5.959,3.183 c-0.682,0.362-1.112,1.067-1.121,1.839l0,0C145.761,54.334,147.462,55.373,148.878,54.625z"/>
          <path style="fill: rgb(255, 255, 255);" d="M145.842,63.595l3.709-1.975 c0.692-0.366,1.125-1.084,1.125-1.867v-0.026c0-1.592-1.695-2.611-3.101-1.865l-3.709,2.001 c-0.682,0.362-1.112,1.067-1.121,1.838l0,0C142.725,63.304,144.426,64.343,145.842,63.595z"/>
        </g>
      </g>
    </g>
  </g>
</svg>