<svg width="214" height="214" viewBox="0 0 214 214" fill="none" xmlns="http://www.w3.org/2000/svg">
<rect width="214" height="214" rx="50" fill="url(#paint0_linear_148_9)"/>
<path d="M78.508 50C71.332 50 64.936 50.936 59.32 52.808C53.704 54.576 49.024 57.176 45.28 60.608C41.432 63.936 38.52 67.992 36.544 72.776C34.568 77.456 33.58 82.76 33.58 88.688C33.58 93.368 34.308 98.048 35.764 102.728C37.116 107.408 39.404 111.672 42.628 115.52C45.748 119.368 49.908 122.488 55.108 124.88C60.308 127.168 66.756 128.312 74.452 128.312H90.676V164.816H113.296V50H78.508ZM74.608 106.472C71.176 106.472 68.316 105.9 66.028 104.756C63.74 103.612 61.972 102.156 60.724 100.388C59.372 98.62 58.436 96.8 57.916 94.928C57.292 92.952 56.98 91.132 56.98 89.468C56.98 88.22 57.188 86.66 57.604 84.788C57.916 82.812 58.644 80.836 59.788 78.86C60.932 76.884 62.7 75.22 65.092 73.868C67.38 72.516 70.5 71.84 74.452 71.84H90.676V106.472H74.608ZM53.392 120.512L25 164.816H51.364L80.38 121.136L53.392 120.512Z" fill="white"/>
<path d="M90.936 164.816V50H125.256C136.8 50 146.628 51.716 154.74 55.148C162.852 58.58 169.352 63.156 174.24 68.876C179.232 74.596 182.872 80.992 185.16 88.064C187.448 95.136 188.592 102.26 188.592 109.436C188.592 117.964 187.032 125.66 183.912 132.524C180.896 139.284 176.736 145.108 171.432 149.996C166.128 154.78 159.992 158.472 153.024 161.072C146.056 163.568 138.672 164.816 130.872 164.816H90.936ZM113.556 142.976H126.972C132.692 142.976 137.892 142.248 142.572 140.792C147.252 139.232 151.256 136.996 154.584 134.084C158.016 131.172 160.616 127.532 162.384 123.164C164.256 118.692 165.192 113.596 165.192 107.876C165.192 100.388 163.944 94.304 161.448 89.624C159.056 84.84 156.04 81.148 152.4 78.548C148.864 75.948 145.224 74.18 141.48 73.244C137.736 72.204 134.564 71.684 131.964 71.684H113.556V142.976Z" fill="white"/>
<defs>
<linearGradient id="paint0_linear_148_9" x1="0" y1="107" x2="214" y2="107" gradientUnits="userSpaceOnUse">
<stop stop-color="#E647F4"/>
<stop offset="0.484347" stop-color="#666BEA"/>
<stop offset="1" stop-color="#0BCDD9"/>
</linearGradient>
</defs>
</svg>
